<svg xmlns="http://www.w3.org/2000/svg" width="553" height="227" fill="none"><mask id="b" width="557" height="231" x="-2" y="-2" fill="#000" maskUnits="userSpaceOnUse"><path fill="#fff" d="M-2-2h557v231H-2z"/><path d="M.594 181.517v-31.428L93.172 3.819h26.207v44.743h-15.98L41.077 147.32v1.704h129.226v32.493H.593ZM104.678 222v-50.071l.426-14.063V3.818h37.287V222h-37.713Zm171.309 4.155c-17.543 0-32.6-4.439-45.171-13.317-12.5-8.949-22.123-21.839-28.871-38.672-6.676-16.903-10.014-37.251-10.014-61.044.071-23.793 3.445-44.034 10.121-60.724 6.747-16.762 16.371-29.546 28.871-38.352C243.494 5.239 258.515.836 275.987.836c17.471 0 32.493 4.403 45.064 13.21 12.571 8.806 22.194 21.59 28.87 38.352 6.748 16.761 10.121 37.003 10.121 60.724 0 23.864-3.373 44.247-10.121 61.151-6.676 16.832-16.299 29.687-28.87 38.565-12.5 8.878-27.522 13.317-45.064 13.317Zm0-33.345c13.636 0 24.396-6.712 32.28-20.135 7.954-13.495 11.931-33.345 11.931-59.553 0-17.33-1.811-31.889-5.433-43.679-3.622-11.79-8.736-20.667-15.341-26.633-6.605-6.037-14.417-9.056-23.437-9.056-13.566 0-24.29 6.747-32.174 20.242-7.883 13.423-11.86 33.132-11.931 59.126-.071 17.401 1.669 32.031 5.22 43.892 3.622 11.861 8.736 20.81 15.341 26.847 6.605 5.966 14.453 8.949 23.544 8.949Zm106.509-11.293v-31.428l92.578-146.27h26.208v44.743h-15.98l-62.323 98.758v1.704h129.226v32.493H382.496ZM486.58 222v-50.071l.426-14.063V3.818h37.287V222H486.58Z"/></mask><path fill="url(#a)" d="M.594 181.517h-2v2h2v-2Zm0-31.428-1.69-1.069-.31.49v.579h2ZM93.172 3.819v-2h-1.101l-.589.93 1.69 1.07Zm26.207 0h2v-2h-2v2Zm0 44.744v2h2v-2h-2Zm-15.98 0v-2h-1.102l-.589.932 1.691 1.068ZM41.077 147.32l-1.691-1.068-.31.489v.579h2Zm0 1.704h-2v2h2v-2Zm129.226 0h2v-2h-2v2Zm0 32.493v2h2v-2h-2ZM104.678 222h-2v2h2v-2Zm0-50.071-1.999-.061-.001.031v.03h2Zm.426-14.063 1.999.061.001-.03v-.031h-2Zm0-154.048v-2h-2v2h2Zm37.287 0h2v-2h-2v2Zm0 218.182v2h2v-2h-2ZM2.594 181.517v-31.428h-4v31.428h4Zm-.31-30.358L94.862 4.888l-3.38-2.14L-1.096 149.02l3.38 2.139ZM93.172 5.819h26.207v-4H93.172v4Zm24.207-2v44.744h4V3.818h-4Zm2 42.744h-15.98v4h15.98v-4Zm-17.671.932-62.322 98.757 3.382 2.135 62.323-98.757-3.383-2.135ZM39.077 147.32v1.704h4v-1.704h-4Zm2 3.704h129.226v-4H41.077v4Zm127.226-2v32.493h4v-32.493h-4Zm2 30.493H.593v4h169.71v-4ZM106.678 222v-50.071h-4V222h4Zm-.001-50.01.426-14.063-3.998-.121-.426 14.062 3.998.122Zm.427-14.124V3.818h-4v154.048h4Zm-2-152.048h37.287v-4h-37.287v4Zm35.287-2V222h4V3.818h-4Zm2 216.182h-37.713v4h37.713v-4Zm88.425-7.162-1.164 1.626.011.008 1.153-1.634Zm-28.871-38.672-1.86.735.004.009 1.856-.744Zm-10.014-61.044-2-.006v.006h2Zm10.121-60.724-1.855-.747-.002.004 1.857.743Zm28.871-38.352-1.148-1.639-.004.004 1.152 1.635Zm90.128 0-1.148 1.638 1.148-1.638Zm28.87 38.352-1.858.74.003.007 1.855-.747Zm0 121.875-1.857-.742-.002.004 1.859.738Zm-28.87 38.565-1.154-1.634-.004.003 1.158 1.631Zm-12.784-40.163-1.723-1.016-.002.003 1.725 1.013Zm6.498-103.232 1.912-.587-1.912.587ZM299.424 42.81l-1.349 1.476.009.008 1.34-1.484Zm-55.611 11.186 1.725 1.013.002-.004-1.727-1.01Zm-11.931 59.126 2 .008v-.002l-2-.006Zm5.22 43.892-1.916.574.003.01 1.913-.584Zm15.341 26.847-1.35 1.476.009.008 1.341-1.484Zm23.544 40.294c-17.19 0-31.829-4.344-44.017-12.951l-2.307 3.268c12.954 9.148 28.428 13.683 46.324 13.683v-4Zm-44.007-12.943c-12.137-8.69-21.547-21.247-28.178-37.79l-3.713 1.488c6.863 17.122 16.701 30.346 29.563 39.554l2.328-3.252Zm-28.174-37.78c-6.56-16.61-9.875-36.695-9.875-60.31h-4c0 23.97 3.362 44.582 10.154 61.779l3.721-1.469Zm-9.875-60.304c.071-23.617 3.421-43.594 9.978-59.987l-3.714-1.486c-6.795 16.987-10.192 37.493-10.264 61.461l4 .012Zm9.976-59.983c6.63-16.47 16.036-28.918 28.168-37.465l-2.304-3.27c-12.869 9.067-22.71 22.188-29.574 39.24l3.71 1.495Zm28.163-37.462c12.19-8.54 26.797-12.848 43.917-12.848v-4c-17.824 0-33.259 4.498-46.212 13.572l2.295 3.277Zm43.917-12.848c17.12 0 31.727 4.309 43.916 12.849l2.295-3.277C309.246 3.333 293.81-1.165 275.987-1.165v4Zm43.916 12.849c12.199 8.546 21.603 20.99 28.16 37.454l3.716-1.48c-6.794-17.06-16.638-30.183-29.581-39.25l-2.295 3.276Zm28.163 37.46c6.627 16.463 9.976 36.437 9.976 59.978h4c0-23.901-3.398-44.41-10.265-61.471l-3.711 1.494Zm9.976 59.978c0 23.685-3.349 43.803-9.978 60.409l3.715 1.483c6.865-17.2 10.263-37.849 10.263-61.892h-4Zm-9.98 60.413c-6.559 16.537-15.964 29.053-28.165 37.669l2.307 3.268c12.941-9.139 22.783-22.334 29.576-39.462l-3.718-1.475Zm-28.169 37.672c-12.115 8.604-26.717 12.948-43.906 12.948v4c17.895 0 33.336-4.535 46.222-13.686l-2.316-3.262Zm-43.906-16.397c14.458 0 25.822-7.191 34.004-21.122l-3.449-2.026c-7.585 12.915-17.741 19.148-30.555 19.148v4Zm34.002-21.12c8.22-13.944 12.209-34.216 12.209-60.568h-4c0 26.064-3.965 45.493-11.654 58.537l3.445 2.031Zm12.209-60.568c0-17.455-1.822-32.226-5.521-44.266l-3.824 1.175c3.546 11.54 5.345 25.887 5.345 43.091h4Zm-5.521-44.266c-3.689-12.008-8.955-21.247-15.912-27.53l-2.681 2.968c6.253 5.648 11.214 14.165 14.769 25.737l3.824-1.175Zm-15.904-27.523c-6.976-6.376-15.271-9.579-24.786-9.579v4c8.525 0 15.855 2.835 22.088 8.532l2.698-2.953Zm-24.786-9.579c-14.397 0-25.723 7.236-33.901 21.233l3.454 2.018c7.59-12.992 17.712-19.25 30.447-19.25v-4Zm-33.898 21.229c-8.146 13.87-12.136 33.996-12.207 60.134l4 .011c.07-25.85 4.035-45.143 11.656-58.12l-3.449-2.025Zm-12.207 60.131c-.072 17.524 1.678 32.365 5.304 44.474l3.832-1.147c-3.477-11.613-5.207-26.034-5.136-43.311l-4-.016Zm5.307 44.484c3.688 12.077 8.952 21.385 15.904 27.739l2.699-2.952c-6.258-5.72-11.221-14.31-14.777-25.955l-3.826 1.168Zm15.913 27.747c6.981 6.306 15.31 9.465 24.885 9.465v-4c-8.608 0-15.975-2.807-22.204-8.433l-2.681 2.968Zm131.394-3.828h-2v2h2v-2Zm0-31.428-1.69-1.069-.31.49v.579h2Zm92.578-146.27v-2h-1.101l-.589.93 1.69 1.07Zm26.208 0h2v-2h-2v2Zm0 44.744v2h2v-2h-2Zm-15.98 0v-2h-1.103l-.589.932 1.692 1.068Zm-62.323 98.757-1.691-1.068-.309.489v.579h2Zm0 1.704h-2v2h2v-2Zm129.226 0h2v-2h-2v2Zm0 32.493v2h2v-2h-2ZM486.58 222h-2v2h2v-2Zm0-50.071-1.999-.061-.001.031v.03h2Zm.426-14.063 1.999.061.001-.03v-.031h-2Zm0-154.048v-2h-2v2h2Zm37.287 0h2v-2h-2v2Zm0 218.182v2h2v-2h-2Zm-139.797-40.483v-31.428h-4v31.428h4Zm-.31-30.358L476.764 4.888l-3.38-2.14-92.578 146.272 3.38 2.139Zm90.888-145.34h26.208v-4h-26.208v4Zm24.208-2v44.744h4V3.818h-4Zm2 42.744h-15.98v4h15.98v-4Zm-17.672.932-62.322 98.757 3.383 2.135 62.322-98.757-3.383-2.135Zm-62.631 99.825v1.704h4v-1.704h-4Zm2 3.704h129.226v-4H422.979v4Zm127.226-2v32.493h4v-32.493h-4Zm2 30.493H382.496v4h169.709v-4ZM488.58 222v-50.071h-4V222h4Zm-.001-50.01.426-14.063-3.998-.121-.426 14.062 3.998.122Zm.427-14.124V3.818h-4v154.048h4Zm-2-152.048h37.287v-4h-37.287v4Zm35.287-2V222h4V3.818h-4Zm2 216.182H486.58v4h37.713v-4Z" mask="url(#b)"/><defs><linearGradient id="a" x1="276" x2="276" y1="-37" y2="263" gradientUnits="userSpaceOnUse"><stop stop-color="#fff"/><stop offset="1" stop-color="#641320" stop-opacity="0"/></linearGradient></defs></svg>