<svg xmlns="http://www.w3.org/2000/svg" width="70" height="70" fill="none"><g fill="#fff" clip-path="url(#a)"><path d="M68.447 11.804 35.792.138a2.394 2.394 0 0 0-1.593 0L1.552 11.804a2.333 2.333 0 0 0 0 4.39L17.5 21.892v7.275c0 4.536 15.71 4.666 17.5 4.666 1.79 0 17.5-.13 17.5-4.666v-7.275L56 20.65v2.683a2.333 2.333 0 0 0 2.333 2.334h2.334A2.333 2.333 0 0 0 63 23.333v-3.5a3.452 3.452 0 0 0-.38-1.553l5.833-2.086a2.333 2.333 0 0 0 0-4.39h-.006ZM50.167 26.6C45.723 24.577 36.359 24.5 35 24.5c-1.36 0-10.723.077-15.167 2.1V16.436C20.533 15.538 26.035 14 35 14s14.467 1.538 15.167 2.436V26.6ZM35 31.5c-8.633 0-14.055-1.426-15.069-2.333 1.014-.908 6.438-2.334 15.069-2.334s14.055 1.426 15.069 2.334C49.055 30.074 43.633 31.5 35 31.5Zm21.547-13.528L52.5 19.416v-3.083c0-4.536-15.71-4.666-17.5-4.666-1.79 0-17.5.13-17.5 4.666v3.081L2.333 14 35.016 2.333l23.317 8.333v5.882a3.507 3.507 0 0 0-1.786 1.424Zm4.12 5.361h-2.334v-3.5a1.167 1.167 0 0 1 2.334 0v3.5Zm0-6.832V11.5l7 2.5-7 2.501ZM66.5 36.167c-.07 0-.14.006-.209.018A195.352 195.352 0 0 1 35 38.5a195.352 195.352 0 0 1-31.291-2.315 1.317 1.317 0 0 0-.209-.018c-.817 0-3.5.925-3.5 12.833s2.683 12.833 3.5 12.833c.07-.001.14-.008.209-.02a182.468 182.468 0 0 1 24.033-2.192l-2.277 5.463a2.324 2.324 0 0 0 3.083 2.995l.893-.382.386.888A2.32 2.32 0 0 0 31.972 70h.03a2.325 2.325 0 0 0 2.138-1.456l2.027-4.851 2.02 4.832A2.333 2.333 0 0 0 40.331 70h.035a2.317 2.317 0 0 0 2.137-1.4l.39-.895.878.377a2.325 2.325 0 0 0 3.09-3.009l-2.232-5.355a177.83 177.83 0 0 1 21.667 2.1c.067.011.135.016.203.015.817 0 3.5-.925 3.5-12.833s-2.683-12.833-3.5-12.833Zm-27.767 4.631a24.57 24.57 0 0 1 .842 5.457 8.095 8.095 0 0 0-8.122.755 31.507 31.507 0 0 0-.801-6.221 208.438 208.438 0 0 0 8.081.01ZM36.167 59.5A5.833 5.833 0 1 1 42 53.667a5.84 5.84 0 0 1-5.833 5.833ZM3.5 39.083A32.722 32.722 0 0 1 4.667 49c.12 3.346-.273 6.69-1.167 9.917A32.721 32.721 0 0 1 2.333 49c-.12-3.346.273-6.69 1.167-9.917Zm2.357 20.032C6.495 57.265 7 54.168 7 49s-.505-8.265-1.144-10.117a204.695 204.695 0 0 0 22.359 1.846c.7 2.7 1.02 5.483.952 8.271 0 .17 0 .33-.007.492a8.082 8.082 0 0 0-.376 7.644l-.051.124a203.19 203.19 0 0 0-22.876 1.857v-.002Zm26.118 8.552-.852-1.96a1.167 1.167 0 0 0-1.53-.607l-1.963.868 2.736-6.559a8.159 8.159 0 0 0 4.12 2.252l-2.511 6.006ZM42.74 65.1a1.167 1.167 0 0 0-1.53.607l-.863 1.94-2.502-5.989a8.17 8.17 0 0 0 4.125-2.252l2.73 6.533-1.96-.839Zm23.527-5.658a188.954 188.954 0 0 0-22.634-2.1l-.083-.201a8.119 8.119 0 0 0-1.572-9.2 32.47 32.47 0 0 0-.833-7.188 194.743 194.743 0 0 0 25.122-2.196c.541.92 1.4 4.556 1.4 10.443s-.865 9.522-1.4 10.442Z"/></g><defs><clipPath id="a"><path fill="#fff" d="M0 0h70v70H0z"/></clipPath></defs></svg>