<svg xmlns="http://www.w3.org/2000/svg" width="100" height="100" fill="none"><path fill="#641320" d="M97.455 28.236 50.58 9.486a1.563 1.563 0 0 0-1.16 0L2.545 28.236a1.562 1.562 0 0 0 0 2.903L49.42 49.89c.372.149.788.149 1.16 0l26.772-10.71a1.563 1.563 0 0 0-1.16-2.9L50 46.754 7.331 29.688 50 12.62l42.669 17.068-4.186 1.673a1.562 1.562 0 0 0-.037 2.888 1.562 1.562 0 0 0 1.196.015l7.813-3.125a1.563 1.563 0 0 0 0-2.903Z"/><path fill="#641320" d="M76.563 42.188A1.563 1.563 0 0 0 75 43.75v17.987a40.769 40.769 0 0 1-50 0V43.75a1.563 1.563 0 0 0-3.125 0V62.5a1.562 1.562 0 0 0 .59 1.223 43.922 43.922 0 0 0 55.07 0 1.563 1.563 0 0 0 .59-1.223V43.75a1.563 1.563 0 0 0-1.563-1.563Z"/><path fill="#641320" d="M85.938 58.125V34.687a1.563 1.563 0 0 0-1.27-1.534l-34.374-6.562a1.563 1.563 0 1 0-.588 3.068l33.106 6.32v22.146c-3.482 1.336-3.737 5.827-2.38 9.3l-2.296 19.897a1.563 1.563 0 0 0 .625 1.431 9.375 9.375 0 0 0 11.25 0 1.563 1.563 0 0 0 .625-1.431l-2.317-19.899c1.356-3.475 1.1-7.964-2.382-9.298Zm-1.563 2.813c1.92 0 1.719 3.062 1.183 4.896-.783.13-1.582.13-2.364 0-.538-1.836-.74-4.897 1.181-4.897Zm-3.025 25.78 2.044-17.717a7.303 7.303 0 0 0 1.962 0L87.4 86.72a6.336 6.336 0 0 1-6.05 0Z"/></svg>