<svg xmlns="http://www.w3.org/2000/svg" width="20" height="20" fill="none"><g clip-path="url(#a)"><path fill="#641320" fill-rule="evenodd" d="M4.092 19.89c.16.147.406.147.566 0 0 0 1.465-1.355 2.636-3.244.8-1.29 1.456-2.826 1.456-4.354a4.377 4.377 0 0 0-4.375-4.375A4.377 4.377 0 0 0 0 12.292c0 1.528.656 3.064 1.456 4.354a17.438 17.438 0 0 0 2.636 3.243Zm4.148-.723H6.573a.417.417 0 0 0 0 .833H8.24a.416.416 0 1 0 0-.833Zm3.333 0H9.906a.417.417 0 0 0 0 .833h1.667a.416.416 0 1 0 0-.833Zm3.333 0H13.24a.417.417 0 0 0 0 .833h1.666a.416.416 0 1 0 0-.833Zm3.015-.428a2.697 2.697 0 0 1-1.363.426.416.416 0 1 0 .031.833 3.522 3.522 0 0 0 1.782-.558.416.416 0 1 0-.45-.701Zm1.24-2.46a2.696 2.696 0 0 1-.283 1.399.417.417 0 0 0 .743.377 3.54 3.54 0 0 0 .37-1.83.416.416 0 1 0-.83.055Zm-1.553-2.274c.44.207.815.528 1.088.926a.417.417 0 0 0 .687-.47 3.56 3.56 0 0 0-1.42-1.21.417.417 0 0 0-.355.754ZM4.375 10.417a1.876 1.876 0 1 1-.001 3.75 1.876 1.876 0 0 1 .001-3.75Zm6.627 2.835a2.51 2.51 0 0 0 1.498.498h.33a.417.417 0 0 0 0-.833h-.33c-.363 0-.713-.118-.998-.333a.417.417 0 0 0-.5.668Zm3.494.498h1.667a.417.417 0 0 0 0-.833h-1.667a.416.416 0 1 0 0 .833Zm-3.954-4.056a2.491 2.491 0 0 0-.521 1.876.416.416 0 1 0 .827-.107 1.658 1.658 0 0 1 .348-1.25.417.417 0 0 0-.654-.519Zm3.416-.948-1.46.002a2.5 2.5 0 0 0-.248.012.416.416 0 1 0 .083.83c.054-.006.11-.009.167-.009l1.458-.001a.417.417 0 1 0 0-.834Zm2.217.73c.158.143.4.143.558 0 0 0 1.165-1.054 2.096-2.523.64-1.012 1.163-2.217 1.163-3.415A3.54 3.54 0 0 0 16.454 0a3.54 3.54 0 0 0-3.537 3.538c0 1.198.523 2.403 1.162 3.415a13.643 13.643 0 0 0 2.096 2.522Zm.28-7.393a1.458 1.458 0 1 1 0 2.917 1.458 1.458 0 0 1 0-2.917Z" clip-rule="evenodd"/></g><defs><clipPath id="a"><path fill="#fff" d="M0 0h20v20H0z"/></clipPath></defs></svg>