<svg xmlns="http://www.w3.org/2000/svg" width="70" height="70" fill="none"><g clip-path="url(#a)"><path fill="#fff" d="M66.5 5.833h-5.833A2.333 2.333 0 0 0 58.333 3.5H56V2.333A2.333 2.333 0 0 0 53.667 0H37.333A3.478 3.478 0 0 0 35 .91 3.478 3.478 0 0 0 32.667 0H16.333A2.333 2.333 0 0 0 14 2.333V3.5h-2.333a2.333 2.333 0 0 0-2.333 2.333H3.5A3.617 3.617 0 0 0 0 9.543v45.08a3.617 3.617 0 0 0 3.5 3.71h20.28L21.445 63H17.5a3.5 3.5 0 1 0 0 7h35a3.5 3.5 0 1 0 0-7h-3.946l-2.333-4.667h20.28a3.617 3.617 0 0 0 3.5-3.71V9.543a3.617 3.617 0 0 0-3.5-3.71Zm-29.166-3.5h16.333V31.5H37.333a3.46 3.46 0 0 0-1.166.215V3.5c0-.644.522-1.167 1.166-1.167Zm-3.5 33.834h-17.5v-2.334h16.333c.644 0 1.166.523 1.166 1.167v1.167ZM36.166 35c0-.644.522-1.167 1.166-1.167h16.334v2.334h-17.5V35Zm-3.5-32.667c.644 0 1.166.523 1.166 1.167v28.215a3.46 3.46 0 0 0-1.166-.215H16.333V2.333h16.334Zm-21 3.5H14v30.334a2.333 2.333 0 0 0 2.334 2.333h37.333A2.333 2.333 0 0 0 56 36.167V5.833h2.334v35H40.436a3.514 3.514 0 0 0-3.286 2.078 2.333 2.333 0 0 1-4.3 0 3.514 3.514 0 0 0-3.285-2.078H11.667v-35Zm42 60.667c0 .644-.523 1.167-1.167 1.167h-35a1.167 1.167 0 0 1 0-2.334h35c.645 0 1.167.523 1.167 1.167Zm-7.72-3.5H24.055l2.333-4.667h17.224L45.947 63ZM66.5 56h-63a1.303 1.303 0 0 1-1.166-1.377v-3.29H7A1.167 1.167 0 1 0 7 49H2.334V9.543A1.303 1.303 0 0 1 3.5 8.167h5.834v32.666a2.333 2.333 0 0 0 2.333 2.334h17.898c.474-.025.918.23 1.136.653a4.667 4.667 0 0 0 8.598 0 1.208 1.208 0 0 1 1.137-.653h17.898a2.333 2.333 0 0 0 2.333-2.334V8.167H66.5c.695.072 1.21.679 1.167 1.376V49h-56a1.167 1.167 0 0 0 0 2.333h56v3.29A1.303 1.303 0 0 1 66.5 56Z"/><path fill="#fff" d="M19.833 8.167h9.334a1.167 1.167 0 0 0 0-2.334h-9.334a1.167 1.167 0 1 0 0 2.334Z"/><path fill="#641320" d="M29.167 10.5h-3.5a1.167 1.167 0 1 0 0 2.333h3.5a1.167 1.167 0 1 0 0-2.333Zm-9.334 7h9.334a1.167 1.167 0 0 0 0-2.333h-9.334a1.167 1.167 0 0 0 0 2.333Zm0 9.333h5.834a1.167 1.167 0 1 0 0-2.333h-5.834a1.167 1.167 0 1 0 0 2.333Zm0-14H21a1.167 1.167 0 1 0 0-2.333h-1.167a1.167 1.167 0 1 0 0 2.333Zm0 9.334h3.5a1.167 1.167 0 0 0 0-2.334h-3.5a1.167 1.167 0 1 0 0 2.334Zm9.334-2.334H28a1.167 1.167 0 1 0 0 2.334h1.167a1.167 1.167 0 1 0 0-2.334ZM40.833 8.167h9.334a1.167 1.167 0 0 0 0-2.334h-9.334a1.167 1.167 0 1 0 0 2.334Zm9.334 2.333h-3.5a1.167 1.167 0 1 0 0 2.333h3.5a1.167 1.167 0 1 0 0-2.333Zm-9.334 7h9.334a1.167 1.167 0 0 0 0-2.333h-9.334a1.167 1.167 0 0 0 0 2.333Zm0 9.333h5.834a1.167 1.167 0 1 0 0-2.333h-5.834a1.167 1.167 0 1 0 0 2.333Zm0-14H42a1.167 1.167 0 1 0 0-2.333h-1.167a1.167 1.167 0 1 0 0 2.333Zm0 9.334h3.5a1.167 1.167 0 0 0 0-2.334h-3.5a1.167 1.167 0 1 0 0 2.334Zm9.334-2.334H49a1.167 1.167 0 1 0 0 2.334h1.167a1.167 1.167 0 1 0 0-2.334Z"/></g><defs><clipPath id="a"><path fill="#fff" d="M0 0h70v70H0z"/></clipPath></defs></svg>