<svg xmlns="http://www.w3.org/2000/svg" width="70" height="70" fill="none"><g fill="#fff" clip-path="url(#a)"><path d="M5.593 37.33c-1.06 1.305-1.691 2.327-1.56 3.381A3.391 3.391 0 0 0 5.7 42.9c.377.264.777.497 1.193.695.495.253 1.32.675 1.377.977.075.388.03.79-.126 1.154-.17.36-.344.67-.498.941-.448.792-1.121 1.989-.064 2.882.248.219.672.553 1.06.849a2.894 2.894 0 0 0-.37 1.662c.062.45.306.853.674 1.116.257.182.53.344.803.496.673.385.936.564 1.026.918.085.432.051.88-.096 1.295a6.496 6.496 0 0 0 .182 4.092 4.246 4.246 0 0 0 4.992 3.036 93.027 93.027 0 0 0 9.657-2.896c2.57 1.526 4.195 6.136 4.619 7.864.125.515.586.876 1.115.876h28.94a1.148 1.148 0 0 0 1.098-1.483 7.941 7.941 0 0 0-1.29-2.23 9.006 9.006 0 0 1-.825-1.262 31.503 31.503 0 0 1-2.64-10.073 19.441 19.441 0 0 1 1.492-10.076 25.034 25.034 0 0 1 3.031-4.816c2.271-3.069 4.844-6.541 4.928-12.458a34.444 34.444 0 0 0-1.198-9.747 19.019 19.019 0 0 0-6.844-9.87C48.89-.271 41.1-1.576 27.065 1.663c-3.81.879-8.125 2.22-11.231 5.508a21.812 21.812 0 0 0-4.59 7.507 30.678 30.678 0 0 0-1.039 3.754l-.092.397a15.546 15.546 0 0 1-1.013 2.69 6.892 6.892 0 0 0-.944 3.443 4.385 4.385 0 0 0 1.67 2.557c.561.515.93.878.933 1.208a1.92 1.92 0 0 1-.2.492 44.356 44.356 0 0 1-4.966 8.113Zm5.784-11.51c-.46-.425-.9-.826-.95-1.18a7.41 7.41 0 0 1 .767-2.187c.48-.998.864-2.039 1.148-3.109l.093-.4c.244-1.178.563-2.34.956-3.477a19.563 19.563 0 0 1 4.107-6.724c2.68-2.837 6.426-4.007 10.08-4.85 11.744-2.709 19.441-2.719 28.938 4.751a16.55 16.55 0 0 1 6.053 8.69 32.171 32.171 0 0 1 1.12 9.092c-.073 5.174-2.213 8.064-4.476 11.13a27.11 27.11 0 0 0-3.291 5.26 21.734 21.734 0 0 0-1.672 11.269 33.625 33.625 0 0 0 2.854 10.796c.295.569.64 1.11 1.033 1.617.017.021.032.043.048.065H32.11a18.301 18.301 0 0 0-4.035-7.335l.867-.304a88.304 88.304 0 0 1 1.808-.624c4.909-1.545 7.364-3.787 7.297-6.647a1.13 1.13 0 0 0-1.174-1.12 1.148 1.148 0 0 0-1.121 1.174c.028 1.183-.937 2.908-5.695 4.404-.334.106-.998.339-1.876.648-.824.289-1.841.647-2.956 1.032h-.007a94.859 94.859 0 0 1-9.832 2.978 2.02 2.02 0 0 1-2.357-1.54 4.222 4.222 0 0 1-.115-2.812 4.615 4.615 0 0 0 .088-2.38 3.787 3.787 0 0 0-2.112-2.348l-.245-.141c.123-.252.27-.49.44-.713a1.148 1.148 0 0 0-.22-1.628 62.55 62.55 0 0 1-1.401-1.073c.058-.108.125-.23.185-.333.176-.311.377-.672.573-1.082a4.246 4.246 0 0 0 .309-2.565c-.267-1.408-1.607-2.093-2.588-2.595a6.79 6.79 0 0 1-.867-.49 6.23 6.23 0 0 1-.765-.63c0-.06.062-.429 1.064-1.661a46.257 46.257 0 0 0 5.23-8.526c.276-.473.43-1.008.448-1.555a4.002 4.002 0 0 0-1.676-2.877Z"/><path d="M37.295 35.574h6.885c.634 0 1.148.514 1.148 1.147v.953a4.692 4.692 0 0 0 4.344 4.778c.084 0 .168.007.25.007a4.55 4.55 0 0 0 3.155-1.262 4.61 4.61 0 0 0 1.431-3.328v-3.27a12.851 12.851 0 0 1 2.252-7.517 11.914 11.914 0 0 0 2.338-7c0-8.542-9.78-15.492-21.803-15.492-12.023 0-21.803 6.95-21.803 15.492 0 8.542 9.78 15.492 21.803 15.492Zm0-28.689c10.757 0 19.508 5.92 19.508 13.197a9.664 9.664 0 0 1-1.913 5.669 15.128 15.128 0 0 0-2.677 8.847v3.27a2.276 2.276 0 0 1-.716 1.666 2.311 2.311 0 0 1-1.703.63 2.432 2.432 0 0 1-2.171-2.49v-.953a3.443 3.443 0 0 0-3.443-3.442h-6.885c-10.757 0-19.508-5.92-19.508-13.197 0-7.277 8.751-13.197 19.508-13.197Z"/><path d="M25.008 23.762a1.148 1.148 0 0 0 1.623 0l1.484-1.484 1.484 1.484a1.148 1.148 0 0 0 1.622-1.622l-1.484-1.484 1.484-1.484a1.148 1.148 0 0 0-1.622-1.623l-1.484 1.484-1.484-1.484a1.148 1.148 0 0 0-1.623 1.623l1.484 1.484-1.484 1.484a1.148 1.148 0 0 0 0 1.622Zm9.992.336h4.59a1.147 1.147 0 1 0 0-2.295H35a1.148 1.148 0 0 0 0 2.295Zm0-4.59h4.59a1.148 1.148 0 0 0 0-2.295H35a1.148 1.148 0 0 0 0 2.295Zm11.475 4.59a1.156 1.156 0 0 1-.995-.573 1.148 1.148 0 1 0-1.986 1.147 3.443 3.443 0 1 0 5.529-4.016 3.436 3.436 0 1 0-5.531-4.017 1.148 1.148 0 0 0 1.986 1.148 1.148 1.148 0 1 1 .997 1.721 1.148 1.148 0 0 0 0 2.295 1.148 1.148 0 0 1 0 2.295Z"/></g><defs><clipPath id="a"><path fill="#fff" d="M0 0h70v70H0z"/></clipPath></defs></svg>