<svg xmlns="http://www.w3.org/2000/svg" width="20" height="20" fill="none"><g fill="#641320" clip-path="url(#a)"><path d="M19.234 4.084c-.768-1.056-2.112-2.01-3.785-2.684A14.945 14.945 0 0 0 10.01.356a14.925 14.925 0 0 0-5.444 1.028C2.89 2.054 1.543 3.002.773 4.056.032 5.068-.181 6.158.155 7.21A1.653 1.653 0 0 0 1.74 8.352l2.498.002h.003a1.67 1.67 0 0 0 1.284-.598 1.642 1.642 0 0 0 .349-1.392l-.132-.511c.728-.347 2.377-1.018 4.26-1.008 1.883.01 3.531.68 4.26 1.028l-.134.508a1.642 1.642 0 0 0 .344 1.394 1.67 1.67 0 0 0 1.286.602l2.498.003h.002c.728 0 1.365-.457 1.585-1.138.34-1.051.13-2.143-.608-3.158Z"/><path d="m15.648 10.93-1.863-1.956a.597.597 0 0 0-.432-.185H12.15v-.814a.597.597 0 0 0-1.193 0v.814H9.045v-.814a.597.597 0 0 0-1.194 0v.814H6.647a.597.597 0 0 0-.432.185L4.352 10.93a8.176 8.176 0 0 0-2.265 5.662v2.456c0 .33.267.596.597.596h14.633c.33 0 .596-.267.596-.596v-2.456a8.176 8.176 0 0 0-2.265-5.662ZM10 17.463a3.127 3.127 0 0 1-3.123-3.124A3.127 3.127 0 0 1 10 11.216a3.127 3.127 0 0 1 3.124 3.123A3.127 3.127 0 0 1 10 17.463Z"/><path d="M10 12.41c-1.064 0-1.93.865-1.93 1.93 0 1.064.866 1.93 1.93 1.93s1.93-.866 1.93-1.93c0-1.065-.866-1.93-1.93-1.93Z"/></g><defs><clipPath id="a"><path fill="#fff" d="M0 0h20v20H0z"/></clipPath></defs></svg>