<svg xmlns="http://www.w3.org/2000/svg" width="20" height="20" fill="none"><g clip-path="url(#a)"><path fill="#641320" fill-rule="evenodd" d="M10 0C4.477 0 0 4.477 0 10s4.477 10 10 10 10-4.477 10-10S15.523 0 10 0Zm4.635 6.8c-.15 1.582-.801 5.42-1.133 7.19-.14.75-.416 1.001-.683 1.026-.58.053-1.022-.384-1.584-.753-.88-.577-1.378-.936-2.232-1.499-.987-.65-.347-1.008.215-1.592.148-.154 2.706-2.481 2.756-2.692.006-.026.012-.125-.047-.177-.058-.052-.145-.034-.207-.02-.088.02-1.494.95-4.218 2.788-.399.274-.76.408-1.084.4-.357-.007-1.044-.201-1.555-.367-.626-.204-1.124-.311-1.08-.657.022-.18.27-.364.744-.552a475.962 475.962 0 0 1 5.831-2.513c2.777-1.155 3.354-1.355 3.73-1.362.472-.008.586.38.547.78Z" clip-rule="evenodd"/></g><defs><clipPath id="a"><path fill="#fff" d="M0 0h20v20H0z"/></clipPath></defs></svg>